<svg xmlns="http://www.w3.org/2000/svg" viewBox="0 0 64 64" role="img" aria-label="ICEntral favicon">
  <defs>
    <linearGradient id="bgGrad" x1="8" y1="4" x2="56" y2="60" gradientUnits="userSpaceOnUse">
      <stop offset="0" stop-color="#00d1b2" />
      <stop offset="1" stop-color="#ffb703" />
    </linearGradient>
  </defs>
  <rect x="4" y="4" width="56" height="56" rx="14" fill="#071118" />
  <rect x="4" y="4" width="56" height="56" rx="14" fill="none" stroke="url(#bgGrad)" stroke-width="3" />
  <path d="M24 18h6v28h-6z" fill="#ecf8ff" />
  <path d="M40 20c-5.1 0-9 3.7-9 12s3.9 12 9 12c2.6 0 4.6-.8 6.1-2.1l-2.2-4.4c-1 .8-2.1 1.3-3.5 1.3-2.6 0-4.1-2.2-4.1-6.8s1.5-6.8 4.1-6.8c1.4 0 2.5.5 3.5 1.3l2.2-4.4C44.6 20.8 42.6 20 40 20z" fill="#ecf8ff" />
</svg>
